<svg xmlns="http://www.w3.org/2000/svg" width="24" height="24" fill="none" aria-hidden="true"><path fill="currentColor" fill-rule="evenodd" d="M3 12a8.96 8.96 0 0 0 1.778 5.372A8.987 8.987 0 0 0 12 21a8.981 8.981 0 0 0 7.222-3.628A9 9 0 1 0 3 12zm9 3c2.747 0 5.259.472 6.562 1.577a8 8 0 1 0-13.124 0C6.74 15.472 9.253 15 12 15zm5.94 2.36A7.98 7.98 0 0 1 12 20a7.98 7.98 0 0 1-5.94-2.64C7.022 16.518 9.18 16 12 16c2.82 0 4.978.519 5.94 1.36zM12 14a3.75 3.75 0 1 1 0-7.5 3.75 3.75 0 0 1 0 7.5zm2.75-3.75a2.75 2.75 0 1 1-5.5 0 2.75 2.75 0 0 1 5.5 0z" clip-rule="evenodd"></path></svg>