<svg xmlns="http://www.w3.org/2000/svg" width="16" height="16" fill="none" viewBox="0 0 16 16" class="g1pQExb" data-icon-name="priority-icon" data-priority="1"><path fill="currentColor" fill-rule="evenodd" d="M2.276 2.553A.5.5 0 0 0 2 3v10.5a.5.5 0 0 0 1 0V9.829c.585-.216 1.42-.329 2.5-.329.765 0 1.265.115 2.342.474 1.173.391 1.757.526 2.658.526 1.404 0 2.475-.178 3.224-.553A.5.5 0 0 0 14 9.5V3a.5.5 0 0 0-.724-.447C12.692 2.845 11.763 3 10.5 3c-.765 0-1.265-.115-2.342-.474C6.985 2.135 6.401 2 5.5 2c-1.404 0-2.475.179-3.224.553Z" clip-rule="evenodd"></path></svg>