<svg xmlns="http://www.w3.org/2000/svg" width="24" height="25" fill="none" viewBox="0 0 24 25" aria-hidden="true"><path fill="currentColor" fill-rule="evenodd" d="M17.333 4.001A2.667 2.667 0 0 1 20 6.668v10.667A2.667 2.667 0 0 1 17.333 20H6.667A2.667 2.667 0 0 1 4 17.335V6.668A2.667 2.667 0 0 1 6.667 4h10.666Zm-.083 1H6.75a1.75 1.75 0 0 0-1.745 1.62L5 6.75v10.5a1.75 1.75 0 0 0 1.62 1.745l.13.005h10.5a1.75 1.75 0 0 0 1.745-1.62l.005-.13v-10.5a1.75 1.75 0 0 0-1.62-1.745l-.13-.005Zm-.75 7c0-.276-.183-.5-.41-.5H7.91l-.074.008c-.191.043-.336.247-.336.492 0 .276.183.5.41.5h8.18l.074-.008c.191-.042.336-.246.336-.492Zm-.41 3.5c.227 0 .41.224.41.5 0 .246-.145.45-.336.492l-.073.008H7.909c-.226 0-.409-.224-.409-.5 0-.245.145-.45.336-.492l.073-.008h8.182Zm.41-7.5c0-.276-.183-.5-.41-.5H7.91l-.074.008c-.191.043-.336.247-.336.492 0 .276.183.5.41.5h8.18l.074-.008c.191-.042.336-.246.336-.492Z" clip-rule="evenodd"></path></svg>