<svg xmlns="http://www.w3.org/2000/svg" width="24" height="24" fill="none" viewBox="0 0 24 24" aria-hidden="true"><path fill="currentColor" fill-rule="evenodd" d="M7 5.5a1.5 1.5 0 1 1-3 0 1.5 1.5 0 0 1 3 0Zm3 0a.5.5 0 0 1 .5-.5h9a.5.5 0 0 1 0 1h-9a.5.5 0 0 1-.5-.5Zm-3 6a1.5 1.5 0 1 1-3 0 1.5 1.5 0 0 1 3 0Zm3 0a.5.5 0 0 1 .5-.5h9a.5.5 0 1 1 0 1h-9a.5.5 0 0 1-.5-.5Zm-3 6a1.5 1.5 0 1 1-3 0 1.5 1.5 0 0 1 3 0Zm10.146-1.646a.5.5 0 0 1 .708-.707l2 2a.5.5 0 0 1 0 .707l-2 2a.5.5 0 0 1-.708-.707L18.293 18H10.45c-.248 0-.45-.224-.45-.5 0-.277.201-.5.45-.5h7.843l-1.147-1.147Z" clip-rule="evenodd"></path></svg>