<svg xmlns="http://www.w3.org/2000/svg" width="24" height="24" viewBox="0 0 24 24"><path fill="currentColor" d="M13.529 3a1 1 0 0 1 .998.941l.075 1.283a7.206 7.206 0 0 1 1.921 1.156l1.193-.598a1 1 0 0 1 1.314.394l1.529 2.648a1 1 0 0 1-.317 1.335l-1.204.793a7.291 7.291 0 0 1-.026 2.078l1.23.811a1 1 0 0 1 .317 1.335l-1.529 2.648a1 1 0 0 1-1.314.394l-1.345-.674a7.18 7.18 0 0 1-1.757 1.027l-.087 1.488a1 1 0 0 1-.998.941H10.47a1 1 0 0 1-.998-.941L9.39 18.65a7.203 7.203 0 0 1-1.883-1.045l-1.223.613a1 1 0 0 1-1.314-.394l-1.529-2.648a1 1 0 0 1 .317-1.335l1.05-.692a7.213 7.213 0 0 1-.029-2.318l-1.021-.672a1 1 0 0 1-.317-1.335L4.97 6.176a1 1 0 0 1 1.314-.394l1.068.536a7.205 7.205 0 0 1 2.05-1.173l.071-1.204A1 1 0 0 1 10.471 3h3.058zm0 1H10.47l-.09 1.539a.499.499 0 0 1-.349.447 6.188 6.188 0 0 0-2.273 1.3.5.5 0 0 1-.558.075l-1.365-.685-1.528 2.648 1.294.852c.17.112.255.316.216.515a6.242 6.242 0 0 0 .034 2.58.5.5 0 0 1-.213.528l-1.331.877 1.528 2.648 1.51-.758a.5.5 0 0 1 .548.066c.624.529 1.346.93 2.127 1.178a.5.5 0 0 1 .348.448L10.471 20h3.058l.106-1.81a.5.5 0 0 1 .333-.443 6.185 6.185 0 0 0 2.007-1.174.5.5 0 0 1 .552-.07l1.637.82 1.528-2.647-1.506-.992a.499.499 0 0 1-.215-.52 6.284 6.284 0 0 0 .032-2.364.498.498 0 0 1 .217-.506l1.472-.97-1.528-2.648-1.494.75a.502.502 0 0 1-.563-.08 6.204 6.204 0 0 0-2.15-1.297.501.501 0 0 1-.334-.442L13.53 4zM12 8.5a3.5 3.5 0 1 1 0 7 3.5 3.5 0 0 1 0-7zm0 1a2.5 2.5 0 0 0 0 5 2.5 2.5 0 0 0 0-5z"></path></svg>