<svg xmlns="http://www.w3.org/2000/svg" width="12" height="12" viewBox="0 0 12 12"><path fill="currentColor" fill-rule="evenodd" d="M9.357 1C10.264 1 11 1.736 11 2.643V6.07c0 .436-.173.854-.481 1.162L7.232 10.52a1.643 1.643 0 0 1-2.323 0L1.48 7.09c-.64-.64-.64-1.68.001-2.322L4.768 1.48C5.076 1.173 5.494 1 5.93 1h3.427zm-.07.91H5.93a.805.805 0 0 0-.569.235L2.145 5.362a.805.805 0 0 0 0 1.138L5.5 9.855a.805.805 0 0 0 1.138 0l3.217-3.217a.805.805 0 0 0 .236-.569V2.713a.804.804 0 0 0-.804-.804zM7.364 3.726a.91.91 0 1 1 0 1.818.91.91 0 0 1 0-1.818z"></path></svg>