<svg xmlns="http://www.w3.org/2000/svg" width="24" height="24" fill="none" viewBox="0 0 24 24" aria-hidden="true"><path fill="currentColor" fill-rule="evenodd" d="M13.5 18.75C14 19.875 14.5 21 16 21c3 0 5-4 5-9s-4.03-9-9-9a9 9 0 0 0-9 9c0 7.418 2.751 6.307 5.397 5.238.92-.371 1.828-.738 2.603-.738 1.5 0 2 1.125 2.5 2.25ZM20 12c0 4.664-1.796 8-4 8-.716 0-.985-.303-1.586-1.656-.899-2.022-1.63-2.844-3.414-2.844-.835 0-1.459.198-3.017.827l-.252.102c-1.478.59-2.188.714-2.622.453C4.453 16.49 4 15 4 12a8 8 0 0 1 8-8c4.429 0 8 3.563 8 8Zm-2 3.5a1 1 0 1 1-2 0 1 1 0 0 1 2 0Zm-.5-3a1 1 0 1 0 0-2 1 1 0 0 0 0 2ZM16.75 8a1 1 0 1 1-2 0 1 1 0 0 1 2 0ZM12 7.5a1 1 0 1 0 0-2 1 1 0 0 0 0 2ZM9.25 8a1 1 0 1 1-2 0 1 1 0 0 1 2 0ZM6.5 12.5a1 1 0 1 0 0-2 1 1 0 0 0 0 2Z" clip-rule="evenodd"></path></svg>